<svg width="40" height="40" viewBox="0 0 40 40" fill="none" xmlns="http://www.w3.org/2000/svg">
  <path d="M20 8C16 8 14 10 14 12C14 14 16 16 20 16C24 16 26 14 26 12C26 10 24 8 20 8Z" stroke="#FFD700" stroke-width="2" fill="none"/>
  <path d="M14 12C10 12 8 14 8 17C8 20 10 22 14 22" stroke="#FFD700" stroke-width="2" fill="none"/>
  <path d="M26 12C30 12 32 14 32 17C32 20 30 22 26 22" stroke="#FFD700" stroke-width="2" fill="none"/>
  <path d="M20 16V32" stroke="#FFD700" stroke-width="2"/>
  <path d="M14 22C10 22 8 24 8 27C8 30 10 32 14 32" stroke="#FFD700" stroke-width="2" fill="none"/>
  <path d="M26 22C30 22 32 24 32 27C32 30 30 32 26 32" stroke="#FFD700" stroke-width="2" fill="none"/>
  <path d="M14 32H26" stroke="#FFD700" stroke-width="2"/>
</svg>